HIERARCHY
ROOT Hips
{
	OFFSET 0.000000 0.000000 0.000000
	CHANNELS 6 Xposition Yposition Zposition Zrotation Yrotation Xrotation 
	JOINT LowerBack
	{
		OFFSET 0.000000 0.000000 0.000000
		CHANNELS 3 Zrotation Yrotation Xrotation
		JOINT Spine
		{
			OFFSET 0.028270 2.035590 -0.193380
			CHANNELS 3 Zrotation Yrotation Xrotation
			JOINT Spine1
			{
				OFFSET 0.056720 2.048850 -0.042750
				CHANNELS 3 Zrotation Yrotation Xrotation
				JOINT Neck
				{
					OFFSET 0.000000 0.000000 0.000000
					CHANNELS 3 Zrotation Yrotation Xrotation
					JOINT Neck1
					{
						OFFSET -0.054170 1.746240 0.172020
						CHANNELS 3 Zrotation Yrotation Xrotation
						JOINT Head
						{
							OFFSET 0.104070 1.761360 -0.123970
							CHANNELS 3 Zrotation Yrotation Xrotation
							End Site
							{
								OFFSET 0.000000 0.000000 0.000000
							}
						}
					}
				}
				JOINT LeftShoulder
				{
					OFFSET 0.000000 0.000000 0.000000
					CHANNELS 3 Zrotation Yrotation Xrotation
					JOINT LeftArm
					{
						OFFSET 3.362410 1.200890 -0.311210
						CHANNELS 3 Zrotation Yrotation Xrotation
						JOINT LeftForeArm
						{
							OFFSET 4.983000 -0.000000 -0.000000
							CHANNELS 3 Zrotation Yrotation Xrotation
							JOINT LeftHand
							{
								OFFSET 3.483560 -0.000000 -0.000000
								CHANNELS 3 Zrotation Yrotation Xrotation
								JOINT LeftFingerBase
								{
									OFFSET 0.000000 0.000000 0.000000
									CHANNELS 3 Zrotation Yrotation Xrotation
									JOINT LeftHandIndex1
									{
										OFFSET 0.715260 -0.000000 -0.000000
										CHANNELS 3 Zrotation Yrotation Xrotation
										End Site
										{
											OFFSET 0.000000 0.000000 0.000000
										}
									}
								}
								JOINT LThumb
								{
									OFFSET 0.000000 0.000000 0.000000
									CHANNELS 3 Zrotation Yrotation Xrotation
									End Site
									{
										OFFSET 0.000000 0.000000 0.000000
									}
								}
							}
						}
					}
				}
				JOINT RightShoulder
				{
					OFFSET 0.000000 0.000000 0.000000
					CHANNELS 3 Zrotation Yrotation Xrotation
					JOINT RightArm
					{
						OFFSET -3.136600 1.374050 -0.404650
						CHANNELS 3 Zrotation Yrotation Xrotation
						JOINT RightForeArm
						{
							OFFSET -5.241900 -0.000000 -0.000000
							CHANNELS 3 Zrotation Yrotation Xrotation
							JOINT RightHand
							{
								OFFSET -3.444170 -0.000000 -0.000000
								CHANNELS 3 Zrotation Yrotation Xrotation
								JOINT RightFingerBase
								{
									OFFSET 0.000000 0.000000 0.000000
									CHANNELS 3 Zrotation Yrotation Xrotation
									JOINT RightHandIndex1
									{
										OFFSET -0.622530 -0.000000 -0.000000
										CHANNELS 3 Zrotation Yrotation Xrotation
										End Site
										{
											OFFSET 0.000000 0.000000 0.000000
										}
									}
								}
								JOINT RThumb
								{
									OFFSET 0.000000 0.000000 0.000000
									CHANNELS 3 Zrotation Yrotation Xrotation
									End Site
									{
										OFFSET 0.000000 0.000000 0.000000
									}
								}
							}
						}
					}
				}
			}
		}
	}
}
}
MOTION
Frames: 15
Frame Time: 0.008333
1.987314 16.819728 2.872618 -15.832177 -73.001897 28.286853 -4.191433 -1.470020 2.263448 -1.744433 -1.290604 -2.887663 -6.770194 -1.379529 -1.743369 8.467429 -6.637588 -7.447446 -2.203399 -0.164930 -0.048237 0.000000 0.000000 0.000000 0.704160 0.393218 2.783639 -43.140526 9.354171 35.905936 -1.911031 -64.127898 0.012927 -8.749198 -9.593214 0.742349 0.000390 0.078200 0.000000 0.000000 0.000000 0.000000 0.000000 0.000000 0.000000 8.742922 -1.825529 1.931872 62.373526 -15.107489 35.924636 1.488246 52.783088 0.005281 -4.142325 6.481004 -0.242724 0.093916 -0.098297 0.000000 0.000000 0.000000 0.000000 0.000000 0.000000 0.000000 
2.006993 16.814629 2.887522 -16.305039 -72.582849 28.366505 -4.118189 -1.478834 2.375741 -1.733575 -1.303942 -2.870785 -6.791276 -1.392313 -1.782110 8.406295 -6.589803 -7.373854 -2.191482 -0.164937 -0.028380 0.000000 0.000000 0.000000 0.706356 0.130354 2.807945 -42.805542 8.870105 36.223540 -1.889304 -64.282172 0.013022 -8.775105 -9.604806 0.745845 0.002073 0.080531 0.000000 0.000000 0.000000 0.000000 0.000000 0.000000 0.000000 8.609197 -1.782765 1.918525 62.582549 -15.457626 36.031043 1.468832 52.902807 0.005067 -4.119292 6.449546 -0.240039 0.091835 -0.097443 0.000000 0.000000 0.000000 0.000000 0.000000 0.000000 0.000000 
2.026356 16.810133 2.901564 -16.770076 -72.174205 28.433445 -4.047452 -1.486958 2.484607 -1.722731 -1.316389 -2.852402 -6.809234 -1.403866 -1.811770 8.350280 -6.556438 -7.311255 -2.177214 -0.164591 -0.011601 0.000000 0.000000 0.000000 0.719024 -0.091736 2.834643 -42.474561 8.303485 36.564702 -1.869019 -64.397831 0.013204 -8.781473 -9.628696 0.748544 0.003386 0.083157 0.000000 0.000000 0.000000 0.000000 0.000000 0.000000 0.000000 8.474781 -1.754735 1.901504 62.770249 -15.783765 36.160382 1.447274 53.045181 0.004843 -4.099081 6.419716 -0.237654 0.089731 -0.096659 0.000000 0.000000 0.000000 0.000000 0.000000 0.000000 0.000000 
2.045555 16.806494 2.914982 -17.256043 -71.777048 28.512837 -3.970985 -1.493683 2.592959 -1.711028 -1.327762 -2.836327 -6.827119 -1.414759 -1.848617 8.299949 -6.522940 -7.243962 -2.163347 -0.164367 0.006667 0.000000 0.000000 0.000000 0.733724 -0.352276 2.859532 -42.156903 7.791447 36.857221 -1.848519 -64.517688 0.013337 -8.798193 -9.645596 0.751541 0.004952 0.085678 0.000000 0.000000 0.000000 0.000000 0.000000 0.000000 0.000000 8.346831 -1.723498 1.888017 62.932932 -16.106607 36.299434 1.425758 53.212000 0.004629 -4.075249 6.392446 -0.235167 0.087649 -0.096017 0.000000 0.000000 0.000000 0.000000 0.000000 0.000000 0.000000 
2.064837 16.803858 2.927904 -17.772180 -71.392934 28.610777 -3.886512 -1.499460 2.703678 -1.698001 -1.338609 -2.822085 -6.844902 -1.425529 -1.892866 8.255029 -6.486607 -7.171025 -2.150240 -0.164302 0.026648 0.000000 0.000000 0.000000 0.750361 -0.649917 2.882377 -41.857396 7.338822 37.094200 -1.828104 -64.640483 0.013423 -8.826751 -9.655109 0.755135 0.006785 0.088090 0.000000 0.000000 0.000000 0.000000 0.000000 0.000000 0.000000 8.226032 -1.686622 1.878000 63.068207 -16.420544 36.450643 1.404459 53.397995 0.004419 -4.047700 6.368846 -0.232680 0.085585 -0.095505 0.000000 0.000000 0.000000 0.000000 0.000000 0.000000 0.000000 
2.084061 16.802331 2.940154 -18.278621 -71.024260 28.691127 -3.805609 -1.507300 2.822193 -1.684683 -1.351145 -2.801241 -6.857594 -1.437017 -1.916988 8.215018 -6.467449 -7.117874 -2.134181 -0.163668 0.040745 0.000000 0.000000 0.000000 0.780962 -0.845103 2.910258 -41.570197 6.726824 37.374007 -1.811155 -64.692986 0.013677 -8.817995 -9.684403 0.756938 0.007814 0.091010 0.000000 0.000000 0.000000 0.000000 0.000000 0.000000 0.000000 8.103980 -1.671576 1.859746 63.175256 -16.671982 36.644672 1.380355 53.584721 0.004203 -4.026002 6.349259 -0.230593 0.083469 -0.094980 0.000000 0.000000 0.000000 0.000000 0.000000 0.000000 0.000000 
2.103559 16.802181 2.952398 -18.842805 -70.667640 28.816265 -3.705436 -1.514343 2.944123 -1.668302 -1.363923 -2.785860 -6.872555 -1.449849 -1.962605 8.178706 -6.427258 -7.043387 -2.121711 -0.163671 0.061128 0.000000 0.000000 0.000000 0.804517 -1.143881 2.932166 -41.310330 6.296345 37.538316 -1.792948 -64.787264 0.013777 -8.847249 -9.692738 0.760431 0.009650 0.093500 0.000000 0.000000 0.000000 0.000000 0.000000 0.000000 0.000000 7.994079 -1.630447 1.850683 63.250391 -16.931758 36.838678 1.358618 53.786127 0.004006 -3.993760 6.333629 -0.228106 0.081398 -0.094598 0.000000 0.000000 0.000000 0.000000 0.000000 0.000000 0.000000 
2.123229 16.803364 2.964379 -19.411090 -70.324281 28.938880 -3.601627 -1.524783 3.074375 -1.649948 -1.380001 -2.762939 -6.882103 -1.464852 -1.984953 8.145110 -6.405004 -6.989754 -2.106316 -0.163089 0.075309 0.000000 0.000000 0.000000 0.838377 -1.325067 2.959147 -41.064928 5.692855 37.747362 -1.778456 -64.808145 0.014056 -8.836364 -9.721711 0.762133 0.010606 0.096540 0.000000 0.000000 0.000000 0.000000 0.000000 0.000000 0.000000 7.880783 -1.614037 1.832456 63.292299 -17.112946 37.084428 1.334302 53.975721 0.003804 -3.968546 6.322278 -0.226219 0.079300 -0.094137 0.000000 0.000000 0.000000 0.000000 0.000000 0.000000 0.000000 
2.143248 16.806039 2.976662 -20.033633 -69.991435 29.107642 -3.476714 -1.535998 3.206461 -1.627567 -1.397835 -2.742924 -6.892085 -1.482225 -2.018121 8.112862 -6.367779 -6.923226 -2.093328 -0.162909 0.093298 0.000000 0.000000 0.000000 0.866995 -1.556478 2.982162 -40.845582 5.194003 37.877844 -1.763681 -64.848844 0.014260 -8.846251 -9.739083 0.764631 0.011999 0.099388 0.000000 0.000000 0.000000 0.000000 0.000000 0.000000 0.000000 7.774602 -1.580967 1.819075 63.299378 -17.278868 37.341193 1.311656 54.166645 0.003624 -3.935892 6.314186 -0.223932 0.077243 -0.093718 0.000000 0.000000 0.000000 0.000000 0.000000 0.000000 0.000000 
2.163603 16.810134 2.989258 -20.699825 -69.668118 29.316894 -3.332959 -1.548993 3.338332 -1.601055 -1.418194 -2.722898 -6.900578 -1.502162 -2.049855 8.081061 -6.326806 -6.855198 -2.080937 -0.162802 0.111772 0.000000 0.000000 0.000000 0.894523 -1.779048 3.003861 -40.647134 4.706322 37.974241 -1.749655 -64.882101 0.014477 -8.855743 -9.755675 0.767130 0.013385 0.102315 0.000000 0.000000 0.000000 0.000000 0.000000 0.000000 0.000000 7.670400 -1.545596 1.805788 63.271501 -17.405651 37.621675 1.289495 54.350229 0.003457 -3.900997 6.308623 -0.221645 0.075228 -0.093271 0.000000 0.000000 0.000000 0.000000 0.000000 0.000000 0.000000 
2.184291 16.815624 3.002238 -21.412466 -69.353155 29.572730 -3.169126 -1.563508 3.465869 -1.570157 -1.440856 -2.703788 -6.907690 -1.524508 -2.080744 8.048894 -6.282018 -6.784884 -2.069042 -0.162780 0.131015 0.000000 0.000000 0.000000 0.921137 -1.997180 3.023509 -40.468912 4.238276 38.036383 -1.735881 -64.914430 0.014698 -8.865888 -9.770982 0.769526 0.014817 0.105328 0.000000 0.000000 0.000000 0.000000 0.000000 0.000000 0.000000 7.566615 -1.507441 1.793090 63.209804 -17.495153 37.922102 1.268060 54.525178 0.003305 -3.863838 6.304697 -0.219358 0.073278 -0.092786 0.000000 0.000000 0.000000 0.000000 0.000000 0.000000 0.000000 
2.205117 16.822386 3.015635 -22.170442 -69.045793 29.879985 -2.985331 -1.579129 3.584686 -1.534990 -1.465412 -2.687014 -6.913849 -1.549012 -2.113022 8.016070 -6.231285 -6.710161 -2.057823 -0.162895 0.151688 0.000000 0.000000 0.000000 0.947569 -2.223094 3.040157 -40.309464 3.810935 38.060712 -1.721647 -64.957307 0.014915 -8.879693 -9.783526 0.772123 0.016392 0.108408 0.000000 0.000000 0.000000 0.000000 0.000000 0.000000 0.000000 7.463120 -1.463458 1.782115 63.116568 -17.555035 38.233993 1.247753 54.692615 0.003168 -3.823694 6.300806 -0.216870 0.071413 -0.092268 0.000000 0.000000 0.000000 0.000000 0.000000 0.000000 0.000000 
2.226069 16.830255 3.029337 -22.968575 -68.745602 30.236501 -2.784346 -1.595846 3.692394 -1.495816 -1.491667 -2.671064 -6.917981 -1.575138 -2.139576 7.982338 -6.185826 -6.638648 -2.045654 -0.162903 0.171599 0.000000 0.000000 0.000000 0.978234 -2.426213 3.054665 -40.165189 3.373695 38.072063 -1.707140 -64.998165 0.015158 -8.886050 -9.798145 0.774221 0.017911 0.111708 0.000000 0.000000 0.000000 0.000000 0.000000 0.000000 0.000000 7.355111 -1.426129 1.770801 62.993532 -17.569995 38.565116 1.227847 54.847806 0.003047 -3.786518 6.297068 -0.214582 0.069681 -0.091697 0.000000 0.000000 0.000000 0.000000 0.000000 0.000000 0.000000 
2.247099 16.839142 3.043370 -23.818188 -68.451755 30.654207 -2.563481 -1.611728 3.785082 -1.452861 -1.517959 -2.661082 -6.922903 -1.602057 -2.176904 7.948474 -6.124039 -6.554699 -2.035188 -0.163266 0.195325 0.000000 0.000000 0.000000 1.010511 -2.679421 3.063907 -40.037036 3.044329 38.028203 -1.690335 -65.081260 0.015344 -8.907945 -9.802429 0.776813 0.019899 0.114953 0.000000 0.000000 0.000000 0.000000 0.000000 0.000000 0.000000 7.249728 -1.368377 1.764466 62.846044 -17.586782 38.876802 1.210100 55.006809 0.002945 -3.741263 6.290100 -0.211693 0.068031 -0.091153 0.000000 0.000000 0.000000 0.000000 0.000000 0.000000 0.000000 
2.267923 16.848803 3.057175 -24.675497 -68.163706 31.094606 -2.339198 -1.630127 3.865754 -1.408165 -1.546715 -2.649380 -6.923935 -1.630889 -2.199177 7.914545 -6.085643 -6.484601 -2.020765 -0.163120 0.215171 0.000000 0.000000 0.000000 1.058593 -2.873977 3.071372 -39.918267 2.645222 38.005809 -1.673118 -65.149196 0.015602 -8.906800 -9.819630 0.778611 0.021618 0.118676 0.000000 0.000000 0.000000 0.000000 0.000000 0.000000 0.000000 7.131593 -1.337699 1.755512 62.677893 -17.536596 39.219530 1.191417 55.146637 0.002845 -3.710481 6.283090 -0.209703 0.066606 -0.090556 0.000000 0.000000 0.000000 0.000000 0.000000 0.000000 0.000000 
